<svg width="460" height="73" viewBox="0 0 460 73" fill="none" xmlns="http://www.w3.org/2000/svg">
<path d="M0.72 72V4.8H16.368L44.208 50.496H35.952L63.024 4.8H78.672L78.864 72H61.392L61.2 31.392H64.176L43.92 65.376H35.472L14.64 31.392H18.288V72H0.72ZM91.4498 72V19.968H108.826V35.136L106.234 30.816C107.77 26.912 110.266 24 113.722 22.08C117.178 20.096 121.37 19.104 126.298 19.104V35.52C125.466 35.392 124.73 35.328 124.09 35.328C123.514 35.264 122.874 35.232 122.17 35.232C118.458 35.232 115.45 36.256 113.146 38.304C110.842 40.288 109.69 43.552 109.69 48.096V72H91.4498ZM122.218 72L151.883 4.8H170.603L200.363 72H180.587L157.355 14.112H164.843L141.611 72H122.218ZM138.443 58.944L143.339 44.928H176.171L181.067 58.944H138.443ZM204.887 72V19.968H222.263V35.136L219.671 30.816C221.207 26.912 223.703 24 227.159 22.08C230.615 20.096 234.807 19.104 239.735 19.104V35.52C238.903 35.392 238.167 35.328 237.527 35.328C236.951 35.264 236.311 35.232 235.607 35.232C231.895 35.232 228.887 36.256 226.583 38.304C224.279 40.288 223.127 43.552 223.127 48.096V72H204.887ZM272.088 72.864C265.432 72.864 260.248 71.232 256.536 67.968C252.824 64.64 250.968 59.648 250.968 52.992V8.352H269.208V52.8C269.208 54.656 269.72 56.128 270.744 57.216C271.768 58.24 273.08 58.752 274.68 58.752C276.856 58.752 278.712 58.208 280.248 57.12L284.76 69.888C283.224 70.912 281.336 71.648 279.096 72.096C276.856 72.608 274.52 72.864 272.088 72.864ZM243.384 35.52V21.888H281.112V35.52H243.384ZM325.682 19.104C329.714 19.104 333.362 19.936 336.625 21.6C339.89 23.2 342.45 25.696 344.306 29.088C346.226 32.48 347.186 36.864 347.186 42.24V72H328.946V45.216C328.946 41.504 328.178 38.816 326.642 37.152C325.17 35.424 323.09 34.56 320.402 34.56C318.482 34.56 316.722 35.008 315.122 35.904C313.522 36.736 312.274 38.048 311.378 39.84C310.482 41.632 310.034 43.968 310.034 46.848V72H291.794V0.767996H310.034V34.752L305.81 30.432C307.794 26.656 310.514 23.84 313.97 21.984C317.426 20.064 321.33 19.104 325.682 19.104ZM380.525 72.864C376.301 72.864 372.493 72.032 369.101 70.368C365.773 68.704 363.149 66.112 361.229 62.592C359.373 59.008 358.445 54.496 358.445 49.056V19.968H376.685V46.08C376.685 50.112 377.421 52.992 378.893 54.72C380.429 56.448 382.573 57.312 385.325 57.312C387.117 57.312 388.749 56.896 390.221 56.064C391.693 55.232 392.877 53.92 393.773 52.128C394.669 50.272 395.117 47.904 395.117 45.024V19.968H413.357V72H395.981V57.312L399.341 61.44C397.549 65.28 394.957 68.16 391.565 70.08C388.173 71.936 384.493 72.864 380.525 72.864ZM425.106 72V19.968H442.482V35.136L439.89 30.816C441.426 26.912 443.922 24 447.378 22.08C450.834 20.096 455.026 19.104 459.954 19.104V35.52C459.122 35.392 458.386 35.328 457.746 35.328C457.17 35.264 456.53 35.232 455.826 35.232C452.114 35.232 449.106 36.256 446.802 38.304C444.498 40.288 443.346 43.552 443.346 48.096V72H425.106Z" fill="#83FF0D"/>
</svg>
